<svg width="77" height="80" viewBox="0 0 77 80" fill="none" xmlns="http://www.w3.org/2000/svg">
<g clip-path="url(#clip0_11_2)">
<path fill-rule="evenodd" clip-rule="evenodd" d="M17.8287 75.9879C18.3539 75.9107 18.5478 75.8706 18.5701 75.8345C18.5842 75.8116 18.5722 75.6946 18.5433 75.5744C18.4653 75.2489 18.2544 75.0489 17.8682 74.9342C17.3998 74.7951 17.3096 74.6293 17.5279 74.308C17.6522 74.125 17.6457 73.9969 17.4971 73.7033L17.4147 73.5406L17.7302 73.5405C18.1251 73.5404 19.2859 73.4649 19.9376 73.3969C20.3459 73.3542 20.4338 73.3323 20.4457 73.2704C20.469 73.1485 20.2625 72.9765 20.0929 72.9765C19.9524 72.9765 19.9435 72.9673 19.921 72.7998C19.8848 72.5297 19.7046 72.2929 19.4424 72.1708C19.2345 72.074 19.1649 72.066 18.5325 72.0656C17.7814 72.0652 17.6085 72.0264 17.4794 71.8293C17.3669 71.6577 17.4188 71.479 17.7613 70.8574C17.9301 70.5511 18.1306 70.1361 18.2069 69.9353C18.3366 69.594 18.3458 69.5331 18.3476 69.0059C18.3493 68.4674 18.3441 68.4327 18.2304 68.2393C18.0812 67.9856 17.7972 67.7394 17.5778 67.6736C17.417 67.6254 17.411 67.617 17.4371 67.4775C17.4521 67.3973 17.5025 67.2431 17.5489 67.1347C17.6596 66.8765 17.6563 66.6818 17.5388 66.5323L17.4441 66.4119L17.6032 66.2661C17.6907 66.1859 17.7785 66.1202 17.7982 66.1202C17.8179 66.1202 17.8593 66.2228 17.8901 66.3481C18.0043 66.8119 18.2492 67.0346 18.4792 66.8839C18.7094 66.7331 18.6627 66.471 18.3512 66.1653L18.1627 65.9804L18.3537 65.7974C18.5175 65.6405 18.5447 65.5895 18.5447 65.4397C18.5447 65.3178 18.5147 65.2327 18.4452 65.1577C18.3671 65.0735 18.3493 65.0124 18.3625 64.8746C18.3762 64.731 18.3615 64.6865 18.2827 64.6312C18.2187 64.5864 18.1957 64.5387 18.2145 64.4897C18.2739 64.3349 18.3265 63.6058 18.2859 63.4991C18.2465 63.3955 18.2653 63.3812 18.8283 63.0866C19.5358 62.7164 20.3262 62.2289 20.9097 61.8029C21.8632 61.1067 22.5041 60.2507 22.8389 59.2262C23.3874 57.5476 23.1572 55.7345 22.216 54.3207C21.4327 53.1441 20.3157 52.4287 18.7445 52.0974C18.1713 51.9766 17.1207 51.9666 16.4854 52.076C15.2941 52.2813 13.955 52.7581 13.11 53.278L12.8997 53.4074L12.8359 53.2548C12.8009 53.1708 12.7578 53.1027 12.7402 53.1034C12.6483 53.1073 12.4032 53.3055 12.4156 53.3659C12.4255 53.414 12.3741 53.4509 12.2435 53.4896C11.5405 53.6977 11.0371 53.9907 9.56218 55.0501C8.84813 55.563 8.37193 55.8293 8.14103 55.8448C8.06344 55.8501 8 55.8674 8 55.8832C8 55.8991 8.06244 56.0501 8.13873 56.2188L8.27746 56.5255L8.46054 56.3568C8.71335 56.1237 9.02705 55.9744 10.2484 55.5057C11.6774 54.9573 12.1296 54.725 12.5854 54.3054C12.7426 54.1608 12.7717 54.1483 12.8065 54.2106C12.8432 54.2762 12.8621 54.2745 13.0271 54.1903L13.2076 54.0982L13.1407 53.9379C13.0761 53.7835 13.0773 53.7749 13.173 53.7017C13.3663 53.5539 14.4068 53.0628 14.8528 52.9088C16.8987 52.2025 18.6236 52.2265 20.1286 52.9824C21.3254 53.5835 22.1999 54.679 22.5698 56.0409C22.6778 56.4385 22.6851 56.5237 22.6851 57.3981C22.6851 58.2725 22.6778 58.3577 22.5698 58.7553C22.4376 59.2421 22.1545 59.8658 21.8837 60.2674C21.4592 60.8968 20.7919 61.462 19.645 62.164C19.162 62.4597 18.2456 62.9525 18.179 62.9525C18.1679 62.9525 18.2177 62.8402 18.2898 62.703C18.3642 62.5611 18.5844 62.2851 18.8002 62.0629C19.9078 60.9228 20.6526 59.6095 21.0642 58.0707C21.3989 56.819 21.1294 55.8972 20.1429 54.9199C19.9541 54.7328 19.6077 54.4521 19.3732 54.2959C18.6691 53.8272 18.1277 53.6873 17.0259 53.6891C16.2745 53.6904 15.8225 53.7555 15.3578 53.9294C14.9882 54.0676 14.3482 54.5199 13.9234 54.9428C13.4673 55.3971 13.1784 55.8358 13.0069 56.3349C12.7213 57.1663 12.9253 58.2543 13.6414 59.7197C14.1187 60.6964 14.6119 61.3931 15.3504 62.1341C15.556 62.3403 15.7245 62.5258 15.7249 62.5463C15.7254 62.5669 15.7941 62.7186 15.8776 62.8834L16.0295 63.1832L15.9393 63.2673C15.8226 63.376 15.7675 63.5247 15.7675 63.7311V63.8966L15.301 64.0576C13.8535 64.5569 12.4933 65.1903 11.1423 65.9941C10.5027 66.3747 10.1684 66.6911 9.95094 67.1218C9.50412 68.007 9.64844 68.969 10.3201 69.5829C10.6713 69.9039 10.9476 70.0009 11.5149 70.0026L11.9705 70.004L12.3897 69.7988C12.8997 69.5492 13.4349 69.1533 13.7397 68.8005C14.3698 68.0708 15.2699 67.041 15.3593 66.9474C15.4567 66.8454 15.4636 66.8444 15.5455 66.9185C15.6454 67.0089 15.6291 67.0289 15.9596 66.4123C16.0915 66.1661 16.1817 66.042 16.215 66.061C16.2434 66.0771 16.3498 66.1571 16.4515 66.2388L16.6365 66.3873L16.5555 66.5033C16.4154 66.7038 16.4079 66.8354 16.5212 67.1071C16.5785 67.2445 16.6382 67.4171 16.6539 67.4906C16.6808 67.6165 16.6727 67.6271 16.5133 67.6749C16.4203 67.7027 16.2525 67.8062 16.1406 67.9048C15.7421 68.2555 15.6157 68.724 15.7375 69.3978C15.8177 69.8414 15.9695 70.2226 16.3173 70.8548C16.6476 71.4549 16.6989 71.606 16.6297 71.7743C16.5362 72.0015 16.3895 72.04 15.5217 72.0646L14.7334 72.0869L14.5474 72.2177C14.336 72.3663 14.2011 72.571 14.1643 72.7988C14.144 72.9242 14.1179 72.9573 14.0312 72.9677C13.8264 72.992 13.6838 73.0731 13.6568 73.1804C13.6422 73.2388 13.6473 73.303 13.6682 73.3231C13.7236 73.3762 15.052 73.4916 15.9929 73.5252L16.8042 73.554L16.746 73.6666C16.714 73.7286 16.6659 73.8608 16.6391 73.9606C16.5946 74.1259 16.5999 74.156 16.6996 74.3029C16.807 74.461 16.8388 74.6434 16.7758 74.7387C16.7315 74.8056 16.4818 74.9292 16.3909 74.9292C16.3495 74.9292 16.2291 74.9711 16.1234 75.0222C15.8738 75.1431 15.6807 75.4354 15.6807 75.6924V75.8746L15.9519 75.9253C16.2287 75.977 17.593 76.0225 17.8287 75.9879ZM11.0088 69.542C9.96205 69.1503 9.77624 67.6943 10.6618 66.822C11.1858 66.3057 13.4516 65.1484 15.1175 64.546C15.8269 64.2895 15.8244 64.2898 15.8529 64.4475C15.8703 64.5436 15.8512 64.6006 15.7764 64.6754C15.6971 64.7547 15.6823 64.8044 15.7038 64.9188C15.7228 65.0206 15.7114 65.0787 15.6646 65.1176C15.6282 65.1478 15.5766 65.2386 15.5499 65.3193C15.5104 65.4391 15.515 65.4945 15.575 65.6211C15.6155 65.7063 15.6847 65.7954 15.7288 65.819C15.8 65.8571 15.7727 65.8964 15.4859 66.1688C15.3082 66.3376 15.167 66.4894 15.1722 66.5061C15.1848 66.5462 13.6035 68.3725 13.2787 68.6929C12.9103 69.0564 12.2534 69.4744 11.8621 69.5944C11.6469 69.6604 11.2621 69.6367 11.0088 69.542Z" fill="#525252"/>
<path fill-rule="evenodd" clip-rule="evenodd" d="M61 80C69.8366 80 77 72.8366 77 64C77 55.1635 69.8366 48 61 48C52.1634 48 45 55.1635 45 64C45 72.8366 52.1634 80 61 80ZM59.5616 52.1655C59.5839 52.1294 59.7778 52.0893 60.303 52.0121C60.5387 51.9775 61.903 52.023 62.1798 52.0747L62.451 52.1254V52.3076C62.451 52.5646 62.2579 52.8569 62.0083 52.9778C61.9026 53.0289 61.7822 53.0708 61.7408 53.0708C61.6498 53.0708 61.4002 53.1944 61.3559 53.2613C61.2929 53.3566 61.3247 53.539 61.4321 53.6971C61.5318 53.8441 61.5371 53.8741 61.4926 54.0395C61.4658 54.1392 61.4176 54.2714 61.3857 54.3334L61.3275 54.446L62.1388 54.4748C63.0797 54.5084 64.4081 54.6238 64.4635 54.6769C64.4844 54.697 64.4895 54.7612 64.4749 54.8196C64.4479 54.9269 64.3053 55.008 64.1005 55.0324C64.0138 55.0427 63.9877 55.0758 63.9674 55.2012C63.9306 55.429 63.7957 55.6338 63.5843 55.7823L63.3983 55.9131L62.61 55.9354C61.7422 55.96 61.5955 55.9985 61.502 56.2257C61.4328 56.394 61.4841 56.5451 61.8144 57.1452C62.1622 57.7774 62.3139 58.1586 62.3942 58.6022C62.516 59.276 62.3896 59.7445 61.9911 60.0952C61.8792 60.1938 61.7114 60.2973 61.6184 60.3251C61.459 60.3729 61.4509 60.3835 61.4778 60.5094C61.4935 60.5829 61.5532 60.7555 61.6105 60.893C61.7238 61.1646 61.7163 61.2962 61.5762 61.4967L61.4952 61.6127L61.6802 61.7612C61.7819 61.8429 61.8883 61.9229 61.9167 61.939C61.95 61.958 62.0402 61.834 62.1721 61.5877C62.4087 61.1463 62.4676 61.0311 62.5186 61.0345C62.5388 61.0359 62.5578 61.0559 62.5862 61.0815C62.6681 61.1556 62.675 61.1546 62.7724 61.0526C62.8618 60.959 63.7619 59.9292 64.392 59.1996C64.6967 58.8467 65.232 58.4508 65.742 58.2012L66.1612 57.996L66.6168 57.9974C67.1841 57.9991 67.4604 58.0961 67.8116 58.4171C68.4833 59.031 68.6276 59.9931 68.1808 60.8782C67.9633 61.3089 67.629 61.6254 66.9894 62.0059C65.6384 62.8097 64.2782 63.4431 62.8307 63.9425L62.3642 64.1034V64.2689C62.3642 64.4753 62.3091 64.624 62.1924 64.7327L62.1022 64.8168L62.2541 65.1166C62.3376 65.2815 62.4063 65.4332 62.4068 65.4537C62.4072 65.4742 62.5757 65.6597 62.7813 65.8659C63.5198 66.6069 64.0129 67.3036 64.4903 68.2804C65.2064 69.7457 65.4104 70.8337 65.1248 71.6651C64.9533 72.1642 64.6644 72.603 64.2083 73.0572C63.7835 73.4802 63.1435 73.9324 62.7739 74.0707C62.3092 74.2445 61.8572 74.3096 61.1058 74.3109C60.004 74.3128 59.4626 74.1728 58.7585 73.7041C58.524 73.5479 58.1776 73.2672 57.9888 73.0801C57.0023 72.1028 56.7328 71.181 57.0675 69.9293C57.4791 68.3905 58.2239 67.0772 59.3315 65.9371C59.5473 65.715 59.7675 65.4389 59.8419 65.297C59.914 65.1598 59.9638 65.0475 59.9527 65.0475C59.8861 65.0475 58.9697 65.5403 58.4867 65.836C57.3398 66.538 56.6725 67.1033 56.248 67.7326C55.9772 68.1342 55.6941 68.7579 55.5619 69.2447C55.4539 69.6423 55.4466 69.7275 55.4466 70.6019C55.4466 71.4763 55.4539 71.5615 55.5619 71.9592C55.9318 73.321 56.8063 74.4165 58.0031 75.0176C59.5081 75.7735 61.233 75.7976 63.2789 75.0912C63.7249 74.9372 64.7654 74.4461 64.9587 74.2983C65.0544 74.2251 65.0556 74.2165 64.991 74.0621L64.9241 73.9018L65.1046 73.8097C65.2696 73.7255 65.2885 73.7238 65.3252 73.7894C65.36 73.8517 65.3891 73.8392 65.5463 73.6946C66.0021 73.275 66.4543 73.0427 67.8833 72.4943C69.1047 72.0256 69.4184 71.8763 69.6712 71.6433L69.8542 71.4745L69.993 71.7812C70.0693 71.9499 70.1317 72.1009 70.1317 72.1168C70.1317 72.1327 70.0683 72.1499 69.9907 72.1552C69.7598 72.1708 69.2836 72.4371 68.5695 72.9499C67.0946 74.0093 66.5912 74.3023 65.8882 74.5105C65.7576 74.5491 65.7062 74.5861 65.7161 74.6341C65.7285 74.6945 65.4834 74.8927 65.3915 74.8966C65.3739 74.8973 65.3308 74.8292 65.2958 74.7453L65.232 74.5926L65.0217 74.722C64.1767 75.242 62.8376 75.7188 61.6463 75.924C61.011 76.0334 59.9604 76.0234 59.3872 75.9026C57.816 75.5713 56.699 74.8559 55.9157 73.6793C54.9745 72.2655 54.7443 70.4524 55.2928 68.7738C55.6276 67.7494 56.2685 66.8933 57.222 66.1971C57.8055 65.7711 58.5959 65.2836 59.3034 64.9134C59.8664 64.6188 59.8852 64.6046 59.8457 64.5009C59.8052 64.3942 59.8578 63.6651 59.9172 63.5103C59.936 63.4613 59.913 63.4136 59.849 63.3688C59.7702 63.3135 59.7555 63.269 59.7692 63.1254C59.7823 62.9876 59.7646 62.9266 59.6865 62.8423C59.617 62.7673 59.587 62.6823 59.587 62.5603C59.587 62.4105 59.6142 62.3595 59.778 62.2026L59.969 62.0196L59.7805 61.8347C59.469 61.529 59.4223 61.2669 59.6525 61.1161C59.8825 60.9654 60.1274 61.1881 60.2416 61.652C60.2724 61.7772 60.3138 61.8798 60.3335 61.8798C60.3532 61.8798 60.441 61.8142 60.5285 61.7339L60.6876 61.5881L60.5929 61.4677C60.4754 61.3183 60.4721 61.1235 60.5827 60.8654C60.6292 60.757 60.6796 60.6027 60.6946 60.5225C60.7207 60.383 60.7147 60.3746 60.5539 60.3264C60.3345 60.2607 60.0505 60.0144 59.9013 59.7607C59.7876 59.5674 59.7823 59.5326 59.7841 58.9941C59.7859 58.4669 59.7951 58.406 59.9248 58.0648C60.0011 57.8639 60.2016 57.449 60.3704 57.1426C60.7129 56.521 60.7648 56.3423 60.6523 56.1707C60.5232 55.9737 60.3503 55.9349 59.5992 55.9344C58.9668 55.934 58.8972 55.926 58.6893 55.8292C58.4271 55.7071 58.2469 55.4703 58.2107 55.2002C58.1882 55.0327 58.1793 55.0235 58.0388 55.0235C57.8692 55.0235 57.6627 54.8515 57.686 54.7296C57.6979 54.6677 57.7858 54.6458 58.1941 54.6031C58.8458 54.5352 60.0066 54.4596 60.4015 54.4595L60.717 54.4594L60.6346 54.2967C60.486 54.0031 60.4795 53.875 60.6038 53.6921C60.8221 53.3708 60.7319 53.2049 60.2635 53.0658C59.8773 52.9511 59.6664 52.7511 59.5884 52.4256C59.5595 52.3054 59.5475 52.1884 59.5616 52.1655ZM67.4699 61.1781C68.3555 60.3057 68.1696 58.8497 67.1229 58.458C66.8696 58.3633 66.4848 58.3396 66.2696 58.4056C65.8783 58.5256 65.2214 58.9436 64.853 59.3071C64.5282 59.6275 62.9469 61.4538 62.9595 61.494C62.9647 61.5106 62.8235 61.6624 62.6458 61.8312C62.359 62.1036 62.3317 62.1429 62.4029 62.181C62.447 62.2046 62.5162 62.2937 62.5567 62.3789C62.6167 62.5056 62.6213 62.5609 62.5818 62.6807C62.5551 62.7614 62.5035 62.8522 62.4671 62.8824C62.4203 62.9213 62.4089 62.9794 62.4279 63.0812C62.4494 63.1956 62.4346 63.2453 62.3553 63.3247C62.2805 63.3994 62.2614 63.4564 62.2788 63.5525C62.2866 63.5959 62.2921 63.6274 62.3107 63.6449C62.3598 63.691 62.5001 63.64 63.0142 63.4541C64.6801 62.8516 66.9459 61.6943 67.4699 61.1781Z" fill="#525252"/>
<path fill-rule="evenodd" clip-rule="evenodd" d="M61.8287 27.9879C62.3539 27.9107 62.5478 27.8706 62.5701 27.8345C62.5842 27.8117 62.5722 27.6946 62.5433 27.5744C62.4653 27.2489 62.2544 27.0489 61.8682 26.9342C61.3998 26.7951 61.3096 26.6293 61.5279 26.308C61.6522 26.125 61.6457 25.9969 61.4971 25.7033L61.4147 25.5406L61.7302 25.5405C62.1251 25.5404 63.2859 25.4649 63.9376 25.3969C64.3459 25.3542 64.4338 25.3324 64.4457 25.2704C64.469 25.1485 64.2625 24.9765 64.0929 24.9765C63.9524 24.9765 63.9435 24.9673 63.921 24.7998C63.8848 24.5297 63.7046 24.2929 63.4424 24.1708C63.2345 24.0741 63.1649 24.066 62.5325 24.0656C61.7814 24.0652 61.6085 24.0264 61.4794 23.8293C61.3669 23.6577 61.4188 23.479 61.7613 22.8574C61.9301 22.5511 62.1306 22.1361 62.2069 21.9353C62.3366 21.594 62.3458 21.5331 62.3476 21.0059C62.3493 20.4674 62.3441 20.4327 62.2304 20.2394C62.0812 19.9856 61.7972 19.7394 61.5778 19.6736C61.417 19.6255 61.411 19.617 61.4371 19.4775C61.4521 19.3973 61.5025 19.2431 61.5489 19.1347C61.6596 18.8765 61.6563 18.6818 61.5388 18.5323L61.4441 18.4119L61.6032 18.2661C61.6907 18.1859 61.7785 18.1203 61.7982 18.1203C61.8179 18.1203 61.8593 18.2228 61.8901 18.3481C62.0043 18.8119 62.2492 19.0346 62.4792 18.8839C62.7094 18.7331 62.6627 18.4711 62.3512 18.1653L62.1627 17.9804L62.3537 17.7974C62.5175 17.6405 62.5447 17.5895 62.5447 17.4397C62.5447 17.3178 62.5147 17.2327 62.4452 17.1577C62.3671 17.0735 62.3493 17.0125 62.3625 16.8746C62.3762 16.731 62.3615 16.6865 62.2827 16.6312C62.2187 16.5864 62.1957 16.5387 62.2145 16.4897C62.2739 16.3349 62.3265 15.6058 62.2859 15.4991C62.2465 15.3955 62.2653 15.3812 62.8283 15.0866C63.5358 14.7164 64.3262 14.2289 64.9097 13.8029C65.8632 13.1067 66.5041 12.2507 66.8389 11.2262C67.3874 9.54763 67.1572 7.73451 66.216 6.32074C65.4327 5.14411 64.3157 4.42876 62.7445 4.09745C62.1713 3.9766 61.1207 3.96666 60.4854 4.07606C59.2941 4.28127 57.955 4.75808 57.11 5.27803L56.8997 5.40738L56.8359 5.25477C56.8009 5.1708 56.7578 5.10271 56.7402 5.10345C56.6483 5.10736 56.4032 5.30549 56.4156 5.36594C56.4255 5.41398 56.3741 5.45095 56.2435 5.48957C55.5405 5.69773 55.0371 5.99072 53.5622 7.0501C52.8481 7.56297 52.3719 7.82928 52.141 7.84486C52.0634 7.85011 52 7.86738 52 7.88322C52 7.8991 52.0624 8.05011 52.1387 8.21882L52.2775 8.52553L52.4605 8.35677C52.7133 8.12375 53.027 7.97439 54.2484 7.50569C55.6774 6.95728 56.1296 6.72504 56.5854 6.30546C56.7426 6.16079 56.7717 6.14833 56.8065 6.2106C56.8432 6.27621 56.8621 6.27448 57.0271 6.19029L57.2076 6.09821L57.1407 5.93796C57.0761 5.78352 57.0773 5.77488 57.173 5.70172C57.3663 5.55392 58.4068 5.06284 58.8528 4.90883C60.8987 4.20247 62.6236 4.22655 64.1286 4.98243C65.3254 5.58356 66.1999 6.67904 66.5698 8.04087C66.6778 8.43848 66.6851 8.52371 66.6851 9.3981C66.6851 10.2725 66.6778 10.3577 66.5698 10.7553C66.4376 11.2421 66.1545 11.8659 65.8837 12.2674C65.4592 12.8968 64.7919 13.4621 63.645 14.164C63.162 14.4597 62.2456 14.9525 62.179 14.9525C62.1679 14.9525 62.2177 14.8402 62.2898 14.703C62.3642 14.5611 62.5844 14.2851 62.8002 14.0629C63.9078 12.9228 64.6526 11.6095 65.0642 10.0707C65.3989 8.81905 65.1294 7.89723 64.1429 6.91992C63.9541 6.73285 63.6077 6.45209 63.3732 6.29596C62.6691 5.82726 62.1277 5.68727 61.0259 5.68914C60.2745 5.6904 59.8225 5.75549 59.3578 5.92937C58.9882 6.06766 58.3482 6.51987 57.9234 6.94283C57.4673 7.39708 57.1784 7.83583 57.0069 8.33495C56.7213 9.16629 56.9253 10.2543 57.6414 11.7197C58.1187 12.6964 58.6119 13.3931 59.3504 14.1341C59.556 14.3403 59.7245 14.5258 59.7249 14.5463C59.7254 14.5669 59.7941 14.7186 59.8776 14.8834L60.0295 15.1832L59.9393 15.2673C59.8226 15.376 59.7675 15.5247 59.7675 15.7312V15.8966L59.301 16.0576C57.8535 16.5569 56.4933 17.1903 55.1423 17.9941C54.5027 18.3747 54.1684 18.6911 53.9509 19.1218C53.5041 20.007 53.6484 20.969 54.3201 21.5829C54.6713 21.9039 54.9476 22.0009 55.5149 22.0026L55.9705 22.004L56.3897 21.7988C56.8997 21.5492 57.4349 21.1534 57.7397 20.8005C58.3698 20.0709 59.2699 19.041 59.3593 18.9474C59.4567 18.8455 59.4636 18.8444 59.5455 18.9185C59.6454 19.0089 59.6291 19.0289 59.9596 18.4123C60.0915 18.1661 60.1817 18.0421 60.215 18.061C60.2434 18.0771 60.3498 18.1571 60.4515 18.2389L60.6365 18.3873L60.5555 18.5033C60.4154 18.7039 60.4079 18.8354 60.5212 19.1071C60.5785 19.2445 60.6382 19.4171 60.6539 19.4906C60.6808 19.6165 60.6727 19.6272 60.5133 19.6749C60.4203 19.7027 60.2525 19.8062 60.1406 19.9048C59.7421 20.2555 59.6157 20.7241 59.7375 21.3978C59.8177 21.8414 59.9695 22.2226 60.3173 22.8548C60.6476 23.455 60.6989 23.606 60.6297 23.7743C60.5362 24.0016 60.3895 24.04 59.5217 24.0646L58.7334 24.0869L58.5474 24.2177C58.336 24.3663 58.2011 24.571 58.1643 24.7988C58.144 24.9242 58.1179 24.9573 58.0312 24.9677C57.8264 24.9921 57.6838 25.0731 57.6568 25.1804C57.6422 25.2388 57.6473 25.303 57.6682 25.3231C57.7236 25.3762 59.052 25.4917 59.9929 25.5252L60.8042 25.5541L60.746 25.6667C60.714 25.7286 60.6659 25.8608 60.6391 25.9606C60.5946 26.1259 60.5999 26.156 60.6996 26.3029C60.807 26.461 60.8388 26.6434 60.7758 26.7387C60.7315 26.8057 60.4818 26.9292 60.3909 26.9292C60.3495 26.9292 60.2291 26.9711 60.1234 27.0222C59.8738 27.1431 59.6807 27.4354 59.6807 27.6925V27.8746L59.9519 27.9253C60.2287 27.977 61.593 28.0226 61.8287 27.9879ZM55.0088 21.542C53.9621 21.1504 53.7762 19.6943 54.6618 18.822C55.1858 18.3058 57.4516 17.1484 59.1175 16.546C59.8269 16.2895 59.8244 16.2898 59.8529 16.4476C59.8703 16.5436 59.8512 16.6006 59.7764 16.6754C59.6971 16.7547 59.6823 16.8044 59.7038 16.9189C59.7228 17.0206 59.7114 17.0787 59.6646 17.1176C59.6282 17.1478 59.5766 17.2386 59.5499 17.3193C59.5104 17.4391 59.515 17.4945 59.575 17.6211C59.6155 17.7063 59.6847 17.7954 59.7288 17.819C59.8 17.8571 59.7727 17.8964 59.4859 18.1689C59.3082 18.3377 59.167 18.4894 59.1722 18.5061C59.1848 18.5463 57.6035 20.3725 57.2787 20.6929C56.9103 21.0564 56.2534 21.4744 55.8621 21.5945C55.6469 21.6604 55.2621 21.6368 55.0088 21.542Z" fill="#525252"/>
<path fill-rule="evenodd" clip-rule="evenodd" d="M16 32C24.8366 32 32 24.8366 32 16C32 7.16344 24.8366 0 16 0C7.16344 0 0 7.16344 0 16C0 24.8366 7.16344 32 16 32ZM14.5616 4.16549C14.5839 4.12943 14.7778 4.08933 15.303 4.01213C15.5387 3.97746 16.903 4.02298 17.1798 4.07471L17.451 4.12543V4.30756C17.451 4.56462 17.2579 4.85692 17.0083 4.97777C16.9026 5.02894 16.7822 5.07081 16.7408 5.07081C16.6498 5.07081 16.4002 5.19435 16.3559 5.26131C16.2929 5.3566 16.3247 5.53899 16.4321 5.69711C16.5318 5.84405 16.5371 5.87412 16.4926 6.03945C16.4658 6.13917 16.4176 6.27143 16.3857 6.33335L16.3275 6.44596L17.1388 6.47482C18.0797 6.50836 19.4081 6.62383 19.4635 6.6769C19.4844 6.69699 19.4895 6.76122 19.4749 6.81958C19.4479 6.9269 19.3053 7.00796 19.1005 7.03234C19.0138 7.04271 18.9877 7.07578 18.9674 7.20123C18.9306 7.42901 18.7957 7.63374 18.5843 7.78232L18.3983 7.91311L17.61 7.93541C16.7422 7.96002 16.5955 7.99846 16.502 8.22567C16.4328 8.394 16.4841 8.54505 16.8144 9.14523C17.1622 9.77739 17.3139 10.1586 17.3942 10.6022C17.516 11.276 17.3896 11.7445 16.9911 12.0952C16.8792 12.1938 16.7114 12.2973 16.6184 12.3251C16.459 12.3729 16.4509 12.3835 16.4778 12.5094C16.4935 12.5829 16.5532 12.7555 16.6105 12.8929C16.7238 13.1646 16.7163 13.2962 16.5762 13.4967L16.4952 13.6127L16.6802 13.7612C16.7819 13.8429 16.8883 13.9229 16.9167 13.939C16.95 13.958 17.0402 13.8339 17.1721 13.5877C17.4087 13.1463 17.4676 13.0311 17.5186 13.0345C17.5388 13.0358 17.5578 13.0558 17.5862 13.0815C17.6681 13.1556 17.675 13.1546 17.7724 13.0526C17.8618 12.959 18.7619 11.9292 19.392 11.1995C19.6968 10.8467 20.232 10.4508 20.742 10.2012L21.1612 9.99601L21.6168 9.9974C22.1841 9.99909 22.4604 10.0961 22.8116 10.4171C23.4833 11.031 23.6276 11.993 23.1808 12.8782C22.9633 13.3089 22.629 13.6253 21.9894 14.0059C20.6384 14.8097 19.2782 15.4431 17.8307 15.9424L17.3642 16.1034V16.2689C17.3642 16.4753 17.3091 16.624 17.1924 16.7327L17.1022 16.8168L17.2541 17.1166C17.3376 17.2814 17.4063 17.4331 17.4068 17.4537C17.4072 17.4742 17.5757 17.6597 17.7813 17.8659C18.5198 18.6069 19.0129 19.3036 19.4903 20.2803C20.2064 21.7457 20.4104 22.8337 20.1248 23.6651C19.9533 24.1642 19.6644 24.6029 19.2083 25.0572C18.7835 25.4801 18.1435 25.9324 17.7739 26.0706C17.3092 26.2445 16.8572 26.3096 16.1058 26.3109C15.004 26.3127 14.4626 26.1728 13.7585 25.7041C13.524 25.5479 13.1776 25.2672 12.9888 25.0801C12.0023 24.1028 11.7328 23.181 12.0675 21.9293C12.4791 20.3905 13.2239 19.0772 14.3315 17.9371C14.5473 17.715 14.7675 17.4389 14.8419 17.297C14.914 17.1598 14.9638 17.0475 14.9527 17.0475C14.8861 17.0475 13.9697 17.5403 13.4867 17.836C12.3398 18.538 11.6725 19.1032 11.248 19.7326C10.9772 20.1342 10.6941 20.7579 10.5619 21.2447C10.4539 21.6423 10.4466 21.7275 10.4466 22.6019C10.4466 23.4763 10.4539 23.5615 10.5619 23.9591C10.9318 25.321 11.8063 26.4165 13.0031 27.0176C14.5081 27.7735 16.233 27.7975 18.2789 27.0912C18.7249 26.9372 19.7654 26.4461 19.9587 26.2983C20.0544 26.2251 20.0556 26.2165 19.991 26.0621L19.9241 25.9018L20.1046 25.8097C20.2696 25.7255 20.2885 25.7238 20.3252 25.7894C20.36 25.8517 20.3891 25.8392 20.5463 25.6946C21.0021 25.275 21.4543 25.0427 22.8833 24.4943C24.1047 24.0256 24.4184 23.8763 24.6712 23.6432L24.8542 23.4745L24.993 23.7812C25.0693 23.9499 25.1317 24.1009 25.1317 24.1168C25.1317 24.1326 25.0683 24.1499 24.9907 24.1552C24.7598 24.1707 24.2836 24.437 23.5695 24.9499C22.0946 26.0093 21.5912 26.3023 20.8882 26.5104C20.7576 26.5491 20.7062 26.586 20.7161 26.6341C20.7285 26.6945 20.4834 26.8927 20.3915 26.8966C20.3739 26.8973 20.3308 26.8292 20.2958 26.7452L20.232 26.5926L20.0217 26.722C19.1767 27.2419 17.8376 27.7187 16.6463 27.924C16.011 28.0334 14.9604 28.0234 14.3872 27.9026C12.816 27.5712 11.699 26.8559 10.9157 25.6793C9.97448 24.2655 9.74428 22.4524 10.2928 20.7738C10.6276 19.7493 11.2685 18.8933 12.222 18.1971C12.8055 17.7711 13.5959 17.2836 14.3034 16.9134C14.8664 16.6188 14.8852 16.6045 14.8457 16.5009C14.8052 16.3942 14.8578 15.6651 14.9172 15.5103C14.936 15.4613 14.913 15.4136 14.849 15.3688C14.7702 15.3135 14.7555 15.269 14.7692 15.1254C14.7824 14.9876 14.7646 14.9265 14.6865 14.8423C14.617 14.7673 14.587 14.6822 14.587 14.5603C14.587 14.4105 14.6142 14.3595 14.778 14.2026L14.969 14.0196L14.7805 13.8347C14.469 13.529 14.4223 13.2669 14.6525 13.1161C14.8825 12.9654 15.1274 13.1881 15.2416 13.6519C15.2724 13.7772 15.3138 13.8798 15.3335 13.8798C15.3532 13.8798 15.441 13.8141 15.5285 13.7339L15.6876 13.5881L15.5929 13.4677C15.4754 13.3182 15.4721 13.1235 15.5828 12.8653C15.6292 12.7569 15.6796 12.6027 15.6946 12.5225C15.7207 12.383 15.7147 12.3746 15.5539 12.3264C15.3345 12.2606 15.0505 12.0144 14.9013 11.7607C14.7876 11.5673 14.7823 11.5326 14.7841 10.9941C14.7859 10.4669 14.7951 10.406 14.9248 10.0647C15.0011 9.86392 15.2016 9.44895 15.3704 9.14263C15.7129 8.52101 15.7648 8.34232 15.6523 8.17069C15.5232 7.97364 15.3503 7.93485 14.5992 7.93437C13.9668 7.93398 13.8972 7.92595 13.6893 7.82918C13.4271 7.70707 13.2469 7.47032 13.2107 7.20023C13.1882 7.03269 13.1793 7.02353 13.0388 7.02353C12.8692 7.02353 12.6627 6.85148 12.686 6.72963C12.6979 6.66766 12.7858 6.64579 13.1941 6.60313C13.8458 6.53514 15.0066 6.45959 15.4015 6.4595L15.717 6.45941L15.6346 6.29669C15.486 6.00308 15.4795 5.87499 15.6038 5.69204C15.8221 5.37075 15.7319 5.2049 15.2635 5.06578C14.8773 4.95109 14.6664 4.75109 14.5884 4.42559C14.5595 4.30539 14.5475 4.18835 14.5616 4.16549ZM22.4699 13.178C23.3555 12.3057 23.1696 10.8497 22.1229 10.458C21.8696 10.3633 21.4848 10.3396 21.2696 10.4056C20.8783 10.5256 20.2214 10.9436 19.853 11.3071C19.5282 11.6275 17.9469 13.4538 17.9595 13.4939C17.9647 13.5106 17.8235 13.6624 17.6458 13.8312C17.359 14.1036 17.3317 14.1429 17.4029 14.181C17.447 14.2046 17.5162 14.2937 17.5567 14.3789C17.6167 14.5055 17.6213 14.5609 17.5818 14.6807C17.5551 14.7614 17.5035 14.8522 17.4671 14.8824C17.4203 14.9213 17.4089 14.9794 17.4279 15.0812C17.4494 15.1956 17.4346 15.2453 17.3553 15.3246C17.2805 15.3994 17.2614 15.4564 17.2788 15.5525C17.2866 15.5959 17.2921 15.6274 17.3107 15.6449C17.3598 15.691 17.5001 15.6399 18.0142 15.454C19.6801 14.8516 21.9459 13.6943 22.4699 13.178Z" fill="#525252"/>
</g>
<defs>
<clipPath id="clip0_11_2">
<rect width="77" height="80" fill="white"/>
</clipPath>
</defs>
</svg>

